<svg width="20" height="20" viewBox="0 0 20 20" fill="none" xmlns="http://www.w3.org/2000/svg">
<path d="M17.0282 2.90436C15.1494 1.03256 12.65 0.00106812 9.98993 0C7.33582 0 4.83246 1.03058 2.94128 2.90192C1.04675 4.77646 0.00244141 7.26761 0 9.90738V9.91043V9.91226C0.000305176 11.51 0.420074 13.1218 1.21689 14.593L0.0273132 20L5.49652 18.756C6.88171 19.454 8.42728 19.8221 9.98611 19.8227H9.99008C12.6437 19.8227 15.1471 18.792 17.0386 16.9205C18.9348 15.0444 19.9796 12.5565 19.9808 9.91501C19.9815 7.29218 18.9331 4.8024 17.0282 2.90436ZM9.98993 18.2617H9.98642C8.58673 18.2611 7.19986 17.9097 5.97595 17.2452L5.71732 17.1048L2.08054 17.932L2.87048 14.3419L2.7182 14.0793C1.96106 12.7736 1.56097 11.3322 1.56097 9.91058C1.56387 5.30899 5.3447 1.56097 9.98962 1.56097C12.2336 1.56189 14.342 2.43179 15.9265 4.01016C17.5349 5.61295 18.4204 7.70981 18.4196 9.91455C18.4178 14.5172 14.6362 18.2617 9.98993 18.2617Z" fill="#212121"/>
</svg>
